@startuml
title US105 - Update Aircraft Status - Domain Model

package "Aircraft Aggregate" {

    class Aircraft <<root>> <<entity>> {
        - last_maintenance: Date
        - days_since_last_maintenance: int
    }

    class RegistrationID <<value object>> {
        - registration_number: String
    }

    enum AircraftStatus <<enum>> {
        ACTIVE
        INACTIVE
        UNDER_MAINTENANCE
    }

    Aircraft o--> "1" RegistrationID
    Aircraft o--> "1" AircraftStatus
}
@enduml