@startuml
title US101 - Register an Aircraft Model - Domain Model

package "Aircraft Aggregate" {

    class AircraftModel <<root>> <<entity>> {
        - manufacturer: String
        - model_name: String
    }

    class CruisingSpeed <<value object>> {
        - speed: float
    }

    class FuelCapacity <<value object>> {
        - capacity: float
    }

    class MaxRange <<value object>> {
        - range: float
    }

    class MaxSeatingCapacity <<value object>> {
        - max_capacity: int
    }

    AircraftModel o--> "1" CruisingSpeed
    AircraftModel o--> "1" FuelCapacity
    AircraftModel o--> "1" MaxRange
    AircraftModel o--> "1" MaxSeatingCapacity
}
@endif